<?xml version="1.0" standalone="no"?>
<!DOCTYPE svg PUBLIC "-//W3C//DTD SVG 20010904//EN"
 "http://www.w3.org/TR/2001/REC-SVG-20010904/DTD/svg10.dtd">
<svg version="1.0" xmlns="http://www.w3.org/2000/svg"
 width="33px" height="33px" viewBox="0 0 3333.000000 3333.000000"
 preserveAspectRatio="xMidYMid meet">

<g transform="translate(0.000000,3333.000000) scale(0.100000,-0.100000)"
fill="#000000" stroke="none">
<path d="M16265 33324 c-948 -29 -1761 -112 -2624 -270 -2783 -507 -5406
-1733 -7601 -3552 -673 -558 -1340 -1208 -1921 -1872 -1603 -1832 -2795 -4019
-3464 -6353 -559 -1951 -757 -4026 -580 -6057 230 -2622 1061 -5115 2448
-7340 626 -1004 1394 -1985 2185 -2792 107 -108 191 -201 188 -206 -5 -9 387
-388 614 -593 3372 -3046 7839 -4578 12380 -4244 2901 214 5703 1183 8090
2800 2926 1981 5158 4839 6343 8125 930 2578 1213 5312 831 8025 -286 2033
-935 3971 -1924 5754 -1364 2456 -3326 4529 -5705 6028 -2084 1312 -4437 2146
-6870 2433 -93 11 -188 22 -210 25 -191 22 -682 59 -1005 75 -214 11 -984 20
-1175 14z m4853 -6530 l52 -7 0 -1778 0 -1779 -1193 0 c-1155 0 -1196 -1
-1271 -20 -93 -24 -221 -82 -307 -141 -148 -100 -305 -280 -371 -426 -59 -132
-58 -90 -58 -1375 l0 -1178 1601 0 1600 0 -6 -67 c-3 -38 -17 -205 -30 -373
-65 -786 -169 -1699 -295 -2572 -32 -224 -61 -412 -65 -418 -4 -7 -468 -10
-1411 -10 l-1404 0 0 -5070 0 -5070 -2105 0 -2105 0 0 5070 0 5070 -1025 0
-1025 0 2 1713 3 1712 1022 3 1022 2 4 1648 c3 1805 0 1695 64 2067 100 584
324 1125 643 1550 364 487 853 852 1460 1093 509 202 1110 321 1771 351 208 9
3351 14 3427 5z"/>
</g>
</svg>
