<?xml version="1.0" standalone="no"?>
<!DOCTYPE svg PUBLIC "-//W3C//DTD SVG 20010904//EN"
 "http://www.w3.org/TR/2001/REC-SVG-20010904/DTD/svg10.dtd">
<svg version="1.0" xmlns="http://www.w3.org/2000/svg"
 width="3333.000000pt" height="3333.000000pt" viewBox="0 0 3333.000000 3333.000000"
 preserveAspectRatio="xMidYMid meet">

<g transform="translate(0.000000,3333.000000) scale(0.100000,-0.100000)"
fill="#000000" stroke="none">
<path d="M13290 31240 c-5950 -6 -5451 -1 -5865 -61 -1628 -235 -3090 -1106
-4096 -2441 -720 -957 -1138 -2080 -1229 -3308 -8 -102 -11 -2267 -10 -7219 0
-3891 2 -7077 5 -7079 3 -3 9 6 14 19 9 21 10 19 10 -18 2 -79 16 -44 19 44 3
95 12 128 12 45 0 -28 4 -53 9 -56 5 -4 7 3 4 14 -3 12 1 22 10 26 9 3 25 22
37 41 16 27 24 32 34 24 9 -8 19 -4 39 17 15 16 24 31 20 35 -3 4 -1 7 5 7 7
0 12 -5 12 -11 0 -5 5 -7 10 -4 6 4 8 10 6 14 -3 4 10 22 28 40 24 23 35 29
38 19 3 -8 13 1 27 24 12 20 38 44 57 53 19 9 32 20 29 26 -12 19 46 59 86 59
22 0 39 5 39 11 0 6 -7 9 -15 5 -18 -6 -45 2 -45 15 0 5 14 9 30 9 18 0 30 5
30 13 0 20 33 47 58 47 13 0 22 6 22 15 0 9 7 18 15 21 8 3 24 22 36 42 18 31
23 34 28 19 6 -16 13 -12 49 27 23 25 47 46 52 46 11 0 60 44 60 54 0 16 30
36 54 36 15 0 26 6 26 13 0 24 38 50 64 45 14 -3 27 -1 28 4 5 14 151 158 161
158 5 0 20 11 33 25 13 14 32 25 43 25 11 0 24 7 29 16 6 11 17 15 30 12 15
-4 19 -2 15 8 -3 8 1 14 9 14 8 0 27 14 43 30 16 16 33 30 38 30 5 0 22 13 39
30 16 16 36 30 44 30 8 0 14 5 14 10 0 6 7 10 15 10 8 0 15 -4 15 -10 0 -5 5
-10 10 -10 6 0 10 9 10 21 0 27 56 83 76 75 8 -3 12 -2 9 4 -3 6 1 10 9 10 8
0 27 11 42 25 15 14 33 25 40 25 8 0 14 5 14 10 0 6 7 10 15 10 8 0 15 -4 15
-10 0 -5 5 -10 10 -10 6 0 10 9 10 21 0 21 50 79 69 79 6 0 11 5 11 10 0 6 18
10 40 10 33 0 40 3 40 20 0 11 7 20 15 20 8 0 15 5 15 10 0 6 7 10 15 10 8 0
15 -5 15 -11 0 -6 6 -9 13 -6 6 2 11 11 9 21 -2 9 3 16 11 16 7 0 24 11 36 24
13 14 30 22 41 19 10 -3 21 0 24 6 4 7 -1 11 -13 11 -12 0 -21 5 -21 10 0 6
17 10 39 10 38 0 66 19 101 70 10 14 29 23 58 27 23 3 42 10 42 14 0 5 7 9 15
9 8 0 15 5 15 10 0 13 27 13 32 -1 2 -5 11 -7 21 -4 9 4 15 10 12 15 -9 14 93
100 119 100 14 0 37 13 54 30 17 16 35 30 41 30 6 0 11 5 11 10 0 6 16 10 35
10 22 0 38 6 41 15 4 8 13 15 20 15 8 0 17 7 20 15 4 8 15 15 25 15 10 0 19 5
19 10 0 6 18 10 40 10 29 0 40 4 40 15 0 8 6 15 14 15 7 0 20 9 27 21 9 13 29
22 57 26 23 3 42 9 42 14 0 4 16 13 35 19 19 6 35 16 35 21 0 5 7 9 15 9 8 0
15 5 15 10 0 6 14 10 30 10 17 0 30 4 30 9 0 5 16 15 35 21 19 6 35 16 35 21
0 5 7 9 15 9 8 0 15 5 15 10 0 6 14 10 30 10 17 0 30 4 30 9 0 5 13 14 30 20
16 5 30 15 30 20 0 6 9 11 20 11 11 0 20 5 20 10 0 6 18 10 40 10 29 0 40 4
40 15 0 8 7 15 15 15 9 0 18 7 21 15 4 8 15 15 25 15 10 0 19 5 19 10 0 6 14
10 30 10 37 0 85 23 93 45 4 8 13 15 22 15 8 0 15 5 15 10 0 6 18 10 39 10 22
0 41 5 43 11 2 6 29 11 61 12 51 2 57 4 53 21 -4 16 0 18 32 13 20 -3 31 -3
25 0 -22 8 -14 23 13 23 34 0 58 25 51 53 -5 19 -4 20 6 6 10 -13 11 4 9 85
-10 298 -5 5295 6 5731 43 1723 144 2590 393 3370 272 855 888 1781 1639 2460
620 561 1312 979 2002 1209 683 228 1620 356 2873 391 105 3 240 7 300 10 343
14 1223 19 3250 19 2475 0 2883 -4 3750 -40 1250 -51 2133 -198 2825 -471 553
-218 1180 -612 1685 -1059 698 -618 1287 -1438 1600 -2229 222 -561 372 -1318
430 -2165 3 -47 8 -107 10 -135 15 -157 41 -758 50 -1140 3 -143 8 -341 10
-440 12 -471 16 -3577 6 -4665 -15 -1588 -35 -2140 -101 -2819 -125 -1264
-376 -2034 -941 -2884 -513 -772 -1225 -1452 -1997 -1907 -54 -32 -90 -60 -88
-67 3 -6 0 -10 -7 -8 -7 3 -34 -6 -62 -19 -37 -18 -44 -25 -27 -25 22 -1 26
-18 25 -104 0 -13 6 -17 19 -14 14 4 18 -1 18 -19 0 -17 6 -24 20 -24 20 0 24
-19 23 -103 0 -13 6 -17 19 -14 14 4 18 -1 18 -19 0 -13 5 -24 10 -24 6 0 10
-13 10 -30 0 -16 4 -30 9 -30 5 0 14 -14 20 -30 5 -17 15 -30 20 -30 6 0 11
-9 11 -20 0 -11 5 -20 10 -20 6 0 10 -14 10 -30 0 -37 23 -85 45 -93 8 -4 15
-13 15 -22 0 -8 5 -15 10 -15 6 0 10 -18 10 -39 0 -22 4 -41 9 -43 6 -1 11
-29 13 -61 3 -49 6 -57 21 -53 13 3 17 -2 17 -20 0 -13 5 -24 10 -24 6 0 10
-16 10 -35 0 -22 6 -38 14 -41 8 -3 12 -12 10 -19 -3 -7 4 -18 15 -25 17 -9
21 -20 21 -65 0 -48 2 -55 20 -55 18 0 20 -7 20 -55 0 -44 4 -56 20 -65 11 -6
20 -17 20 -25 0 -8 5 -15 10 -15 6 0 10 -18 10 -40 0 -22 4 -40 9 -40 9 0 21
-54 22 -98 1 -16 6 -22 15 -18 10 4 14 -2 14 -18 0 -14 -5 -26 -12 -28 -8 -3
-9 -11 -3 -24 8 -18 9 -18 12 4 7 37 23 25 23 -17 0 -22 4 -41 9 -43 6 -2 11
-29 13 -61 3 -51 5 -57 22 -53 15 4 17 0 14 -24 -3 -20 -1 -27 9 -23 9 4 13
-6 13 -36 0 -23 5 -41 10 -41 6 0 10 -15 10 -34 0 -39 18 -96 31 -96 5 0 9 -7
9 -15 0 -8 5 -15 10 -15 6 0 10 -18 10 -40 0 -22 5 -40 10 -40 7 0 10 -21 9
-51 -2 -43 1 -54 20 -69 21 -15 23 -23 19 -81 -3 -35 -3 -58 0 -51 8 26 22 10
22 -28 0 -22 5 -40 10 -40 6 0 10 -24 10 -52 0 -35 7 -64 20 -86 11 -18 20
-48 20 -67 0 -19 5 -35 10 -35 6 0 10 -18 10 -40 0 -22 4 -40 9 -40 5 0 12
-36 16 -80 6 -62 10 -80 22 -80 13 0 15 -11 11 -62 -3 -35 -3 -53 -1 -40 7 37
23 25 23 -18 0 -22 5 -40 10 -40 6 0 10 -18 10 -40 0 -23 5 -40 11 -40 8 0 10
-25 7 -77 -3 -43 -3 -61 -1 -40 6 49 23 48 23 -3 0 -22 5 -40 10 -40 6 0 10
-33 10 -80 0 -47 4 -80 10 -80 6 0 10 -26 10 -59 0 -105 11 -181 27 -181 12 0
14 -14 11 -78 -3 -42 -3 -60 -1 -40 7 68 23 40 23 -42 0 -44 4 -80 9 -80 5 0
13 -73 17 -163 5 -89 10 -143 12 -119 2 23 8 42 14 42 7 0 9 -51 6 -158 -3
-86 -3 -122 -1 -80 6 124 23 92 23 -42 0 -73 4 -120 10 -120 6 0 10 -47 10
-120 0 -73 4 -120 10 -120 6 0 10 -17 10 -38 0 -21 5 -43 12 -50 9 -9 9 -12
-1 -12 -27 0 0 -17 29 -18 21 0 28 3 23 11 -4 8 -1 7 9 -1 28 -22 425 13 765
68 1344 218 2580 876 3524 1875 997 1054 1582 2388 1689 3850 14 201 14 17332
0 17545 -169 2436 -1755 4556 -4050 5413 -449 168 -944 290 -1390 342 -74 9
-148 18 -165 20 -219 30 -2459 34 -12335 25z m-8490 -18105 c0 -8 -7 -15 -15
-15 -26 0 -18 20 13 29 1 1 2 -6 2 -14z m19125 -6105 c-3 -5 -11 -10 -16 -10
-6 0 -7 5 -4 10 3 6 11 10 16 10 6 0 7 -4 4 -10z m1305 -4920 c0 -5 -2 -10 -4
-10 -3 0 -8 5 -11 10 -3 6 -1 10 4 10 6 0 11 -4 11 -10z"/>
<path d="M14955 24989 c-1175 -6 -1368 -9 -1865 -30 -830 -34 -1366 -90 -1813
-190 -418 -94 -682 -209 -1082 -475 -244 -161 -412 -300 -636 -523 -317 -318
-544 -623 -745 -1006 -254 -483 -377 -1140 -434 -2310 -30 -614 -33 -899 -37
-3408 -4 -2506 -3 -2608 14 -2605 12 2 17 -2 15 -14 -2 -13 2 -16 13 -12 9 4
12 11 7 18 -4 6 -5 31 -1 56 5 38 6 40 7 13 2 -31 4 -33 42 -33 22 0 40 5 40
10 0 6 18 10 40 10 23 0 40 5 40 11 0 8 25 10 78 7 42 -3 60 -3 40 -1 -50 6
-49 23 2 23 22 0 40 5 40 10 0 6 33 10 80 10 47 0 80 4 80 10 0 6 18 10 40 10
23 0 40 5 40 11 0 8 25 10 78 7 42 -3 60 -3 40 -1 -21 2 -38 9 -38 15 0 8 36
10 118 7 64 -3 100 -3 80 -1 -69 6 -39 22 42 22 47 0 80 4 80 10 0 6 33 10 80
10 52 0 80 4 80 11 0 8 25 10 78 7 42 -3 60 -3 40 -1 -21 2 -38 9 -38 15 0 8
36 10 118 7 64 -3 100 -3 80 -1 -69 6 -39 22 42 22 47 0 80 4 80 10 0 6 47 10
120 10 84 0 120 3 120 12 0 8 33 10 118 7 64 -3 100 -3 80 -1 -21 2 -38 7 -38
13 0 5 52 9 120 9 73 0 120 4 120 10 0 6 87 10 240 10 157 0 240 4 240 10 0 7
125 10 373 10 352 -1 372 0 369 17 -2 10 -8 19 -12 21 -5 2 -6 10 -3 19 4 11
2 14 -5 9 -7 -4 -12 -2 -12 4 0 6 -5 8 -12 4 -7 -4 -8 -3 -4 5 4 6 12 8 18 5
8 -5 9 -1 4 12 -51 126 -147 466 -190 670 -80 386 -110 682 -110 1089 1 474
41 811 149 1252 195 790 576 1526 1110 2146 619 717 1410 1249 2303 1547 549
183 1049 263 1647 263 321 0 494 -12 774 -53 940 -140 1832 -542 2571 -1159
161 -134 460 -430 605 -598 642 -746 1061 -1658 1205 -2624 40 -274 53 -454
54 -764 0 -475 -40 -818 -149 -1262 -168 -681 -483 -1340 -912 -1906 -329
-433 -745 -829 -1198 -1142 -55 -38 -101 -73 -103 -77 -2 -4 -10 -8 -18 -8
-17 0 -18 -16 -1 -24 6 -3 0 -3 -16 -1 -15 2 -25 0 -22 -5 3 -5 -3 -13 -12
-19 -12 -7 -13 -10 -4 -11 11 0 11 -3 1 -15 -6 -8 -10 -20 -7 -27 4 -8 6 -7 6
5 1 9 7 17 15 17 9 0 13 7 11 20 -2 13 2 20 11 20 8 0 13 -6 12 -12 -2 -7 3
-12 10 -10 7 1 31 -17 53 -40 31 -34 42 -40 49 -29 7 12 13 7 30 -21 11 -20
27 -39 35 -42 8 -3 15 -12 15 -21 0 -11 11 -15 40 -15 22 0 40 -5 40 -11 0
-13 55 -69 68 -69 5 0 28 -18 51 -40 22 -22 46 -40 52 -40 14 0 69 -55 69 -69
0 -6 11 -11 23 -11 25 0 57 -28 57 -48 0 -7 12 -12 26 -12 23 0 54 -20 54 -35
0 -10 57 -65 68 -65 5 0 28 -18 51 -40 22 -22 36 -40 30 -40 -5 0 -7 -5 -4
-10 4 -6 11 -8 16 -5 5 4 21 -7 35 -22 15 -17 36 -28 51 -28 18 0 27 -6 29
-20 2 -11 12 -26 23 -34 12 -7 21 -20 21 -27 0 -8 9 -14 19 -14 10 0 21 -7 25
-15 3 -8 12 -15 21 -15 18 0 20 -36 3 -43 -7 -3 11 -6 40 -6 32 -1 52 -5 52
-12 0 -7 12 -22 26 -35 27 -26 24 -48 -7 -39 -11 4 -19 2 -19 -4 0 -6 17 -11
39 -11 38 0 40 -2 103 -67 39 -41 77 -73 87 -73 6 0 11 -4 11 -10 0 -5 -4 -10
-10 -10 -5 0 -10 -5 -10 -11 0 -6 7 -9 15 -5 22 8 62 -33 44 -45 -11 -6 -10
-9 5 -15 11 -4 21 -2 27 7 7 12 9 12 9 0 0 -7 12 -25 26 -38 14 -13 24 -29 21
-36 -6 -16 20 -40 28 -27 3 6 1 10 -4 10 -6 0 -11 5 -11 10 0 19 18 10 59 -30
27 -27 36 -40 25 -40 -14 0 -14 -3 -4 -15 10 -11 15 -13 20 -4 5 7 20 -1 43
-25 25 -24 31 -36 20 -36 -13 0 -13 -3 -3 -15 10 -12 15 -13 20 -4 5 7 35 -16
84 -65 72 -73 88 -96 66 -96 -5 0 -10 5 -10 11 0 5 -4 7 -10 4 -13 -8 11 -34
27 -28 7 3 23 -7 36 -21 13 -14 31 -26 38 -26 12 0 12 -2 0 -9 -9 -6 -11 -16
-7 -27 6 -15 9 -16 16 -5 6 11 13 9 33 -12 13 -15 29 -27 36 -27 6 0 11 -5 11
-11 0 -7 9 -21 20 -33 35 -37 72 -73 92 -91 13 -11 17 -20 10 -27 -14 -14 19
-48 35 -35 8 6 20 1 36 -17 13 -14 29 -26 36 -26 6 0 11 -5 11 -11 0 -7 12
-23 27 -37 17 -15 23 -27 16 -29 -19 -7 -3 -32 29 -49 16 -8 34 -26 40 -39 6
-14 26 -34 44 -45 21 -12 32 -24 28 -33 -3 -9 22 -42 65 -86 39 -40 71 -77 71
-82 0 -6 14 -24 30 -41 17 -16 30 -36 30 -44 0 -11 6 -13 20 -9 17 5 20 2 20
-24 0 -21 5 -31 15 -31 8 0 15 -7 15 -15 0 -7 7 -18 16 -23 11 -6 15 -17 12
-30 -4 -15 -2 -19 8 -15 14 5 74 -48 74 -65 0 -6 18 -29 40 -52 22 -23 40 -46
40 -52 0 -13 56 -68 69 -68 6 0 11 -18 11 -40 0 -22 5 -40 11 -40 13 0 69 -55
69 -68 0 -6 18 -29 40 -52 22 -23 40 -46 40 -51 0 -5 5 -9 10 -9 6 0 10 -13
10 -30 0 -20 5 -30 15 -30 8 0 15 -7 15 -15 0 -7 7 -18 16 -23 11 -6 15 -17
12 -30 -4 -13 -2 -19 6 -16 6 2 19 -9 29 -26 10 -16 27 -35 38 -41 25 -13 53
-4 43 13 -6 10 -5 10 7 1 13 -10 19 -9 35 5 11 9 25 18 32 19 15 3 124 70 237
146 505 338 943 798 1259 1322 382 634 503 1276 567 3015 17 447 24 5216 10
6030 -7 349 -14 676 -16 725 -3 50 -9 194 -15 320 -44 959 -151 1640 -326
2076 -110 277 -317 617 -558 919 -131 164 -457 489 -623 622 -394 313 -780
526 -1158 637 -394 117 -1085 210 -1740 236 -77 3 -160 8 -185 10 -25 2 -157
7 -295 11 -137 3 -268 8 -290 9 -162 13 -3274 22 -4820 14z m7665 -1043 c464
-83 835 -320 1082 -691 105 -159 198 -391 235 -585 27 -144 24 -440 -5 -577
-141 -656 -635 -1133 -1285 -1245 -169 -28 -431 -22 -587 15 -316 76 -547 203
-771 426 -226 227 -359 470 -431 793 -20 89 -23 130 -23 308 0 158 4 226 18
295 95 467 380 856 797 1088 142 78 377 154 545 176 74 9 366 7 425 -3z
m-10913 -9042 c-3 -3 -12 -4 -19 -1 -8 3 -5 6 6 6 11 1 17 -2 13 -5z m28 -44
c3 -6 -1 -7 -9 -4 -18 7 -21 14 -7 14 6 0 13 -4 16 -10z m10120 -4720 c3 -5 1
-10 -4 -10 -6 0 -11 5 -11 10 0 6 2 10 4 10 3 0 8 -4 11 -10z m982 -1233 c0
-8 -6 -14 -14 -14 -9 0 -10 4 -2 14 6 7 12 13 14 13 1 0 2 -6 2 -13z"/>
<path d="M16380 19774 c-358 -44 -597 -101 -861 -207 -608 -245 -1093 -639
-1458 -1187 -278 -418 -450 -901 -501 -1409 -13 -132 -13 -478 0 -612 55 -554
268 -1104 602 -1551 44 -60 84 -108 89 -108 5 0 9 -6 9 -12 1 -25 72 -90 100
-92 14 0 27 -6 27 -13 0 -7 -5 -9 -10 -6 -5 3 -7 0 -5 -8 3 -8 10 -13 16 -12
6 2 9 -3 6 -10 -2 -7 9 -26 26 -42 24 -23 42 -30 83 -33 28 -2 54 -8 55 -13 2
-5 21 -9 43 -9 21 0 39 -5 39 -11 0 -14 -92 -9 -103 5 -6 7 -7 4 -4 -6 3 -9 1
-19 -6 -22 -7 -2 -4 -5 6 -5 10 -1 16 -5 12 -10 -3 -5 -1 -13 5 -16 6 -4 10
-3 9 2 -5 32 1 33 119 27 64 -4 118 -11 120 -16 2 -4 21 -8 43 -8 21 0 39 -4
39 -10 0 -5 18 -10 40 -10 22 0 40 -4 40 -10 0 -14 -77 -13 -82 1 -2 6 -13 9
-23 7 -34 -8 21 -25 108 -33 42 -4 77 -11 77 -16 0 -5 36 -9 80 -9 47 0 80 -4
80 -10 0 -5 7 -10 15 -10 8 0 15 -4 15 -9 0 -13 57 -31 96 -31 19 0 34 -4 34
-10 0 -5 18 -10 40 -10 43 0 55 -16 18 -23 -22 -3 -22 -4 -4 -12 13 -6 21 -5
24 3 2 7 15 12 28 12 14 0 22 -4 19 -10 -3 -5 4 -10 15 -10 14 0 20 -5 17 -12
-3 -10 7 -12 39 -9 28 2 44 -1 44 -8 0 -6 18 -11 40 -11 22 0 40 -4 40 -10 0
-5 23 -10 51 -10 43 0 55 -5 81 -30 23 -23 39 -30 69 -30 21 0 39 -4 39 -10 0
-5 18 -10 40 -10 22 0 39 -3 39 -7 -4 -26 4 -33 40 -33 22 0 43 -4 46 -10 3
-5 22 -10 41 -10 19 0 34 -4 34 -10 0 -5 11 -10 24 -10 18 0 23 -4 20 -17 -4
-15 3 -18 53 -20 32 -2 59 -7 61 -13 2 -5 21 -10 43 -10 21 0 39 -4 39 -10 0
-5 7 -10 15 -10 8 0 19 -9 25 -20 6 -12 21 -20 35 -20 14 0 25 -4 25 -10 0 -5
14 -10 30 -10 17 0 30 -4 30 -10 0 -5 19 -10 42 -10 23 0 38 -3 35 -7 -13 -13
16 -33 49 -33 19 0 34 -4 34 -10 0 -5 18 -10 40 -10 22 0 40 -4 40 -10 0 -5 9
-10 19 -10 10 0 21 -7 25 -15 3 -8 12 -15 20 -15 7 0 16 -7 20 -15 3 -9 19
-15 41 -15 19 0 35 -4 35 -10 0 -5 7 -10 15 -10 8 0 15 -4 15 -9 0 -15 38 -23
57 -13 11 7 21 6 31 -4 7 -8 18 -12 22 -9 5 3 7 -2 6 -12 -3 -14 2 -18 25 -17
15 0 36 7 45 15 12 9 15 10 10 2 -4 -8 -2 -13 8 -13 8 0 18 5 21 10 4 6 10 8
15 5 13 -8 184 29 322 70 1136 337 1989 1297 2188 2465 34 203 43 340 37 605
-4 183 -11 286 -26 385 -173 1107 -898 2019 -1935 2435 -216 87 -444 148 -686
186 -110 17 -189 22 -425 24 -159 2 -306 1 -325 -1z m-1915 -5283 c-6 -5 -25
10 -25 20 0 5 6 4 14 -3 8 -7 12 -15 11 -17z m1075 -250 c0 -6 -4 -13 -10 -16
-5 -3 -10 1 -10 9 0 9 5 16 10 16 6 0 10 -4 10 -9z m240 -80 c0 -6 -4 -13 -10
-16 -5 -3 -10 1 -10 9 0 9 5 16 10 16 6 0 10 -4 10 -9z m240 -80 c0 -6 -4 -13
-10 -16 -5 -3 -10 1 -10 9 0 9 5 16 10 16 6 0 10 -4 10 -9z m464 -177 c4 -10
1 -14 -6 -12 -15 5 -23 28 -10 28 5 0 13 -7 16 -16z m346 -135 c0 -5 -7 -9
-15 -9 -8 0 -15 7 -15 15 0 9 6 12 15 9 8 -4 15 -10 15 -15z m336 -141 c-3
-24 -28 -32 -32 -10 -1 7 0 8 3 2 5 -12 24 -14 22 -2 -2 14 1 32 6 32 3 0 3
-10 1 -22z m64 18 c0 -2 -8 -10 -17 -17 -16 -13 -17 -12 -4 4 13 16 21 21 21
13z"/>
<path d="M11771 14767 c-5 -7 -6 -19 -2 -26 6 -9 11 -10 15 -3 4 6 12 10 19 8
7 -1 9 -1 4 1 -4 3 -5 8 -2 13 8 13 -23 20 -34 7z m19 -7 c0 -5 -5 -10 -11
-10 -5 0 -7 5 -4 10 3 6 8 10 11 10 2 0 4 -4 4 -10z"/>
<path d="M10678 14763 c23 -2 61 -2 85 0 23 2 4 4 -43 4 -47 0 -66 -2 -42 -4z"/>
<path d="M14480 14444 c0 -1 8 -8 17 -15 9 -8 14 -9 10 -2 -4 6 -1 13 5 16 7
3 3 4 -9 4 -13 -1 -23 -2 -23 -3z"/>
<path d="M15745 14110 c-3 -5 -1 -10 4 -10 6 0 11 5 11 10 0 6 -2 10 -4 10 -3
0 -8 -4 -11 -10z"/>
<path d="M17047 13613 c-4 -3 -7 -11 -7 -17 0 -6 5 -5 12 2 6 6 9 14 7 17 -3
3 -9 2 -12 -2z"/>
<path d="M19407 12213 c-10 -9 -9 -23 1 -23 5 0 9 7 9 15 0 17 -1 18 -10 8z"/>
<path d="M19500 12180 c0 -5 5 -10 10 -10 6 0 10 5 10 10 0 6 -4 10 -10 10 -5
0 -10 -4 -10 -10z"/>
<path d="M3345 12130 c-13 -6 -15 -9 -5 -9 8 0 22 4 30 9 18 12 2 12 -25 0z"/>
<path d="M20385 11480 c3 -5 8 -10 11 -10 2 0 4 5 4 10 0 6 -5 10 -11 10 -5 0
-7 -4 -4 -10z"/>
<path d="M2249 11233 c-13 -16 -12 -17 4 -4 16 13 21 21 13 21 -2 0 -10 -8
-17 -17z"/>
<path d="M2151 11104 c0 -11 3 -14 6 -6 3 7 2 16 -1 19 -3 4 -6 -2 -5 -13z"/>
<path d="M20808 11083 c7 -3 16 -2 19 1 4 3 -2 6 -13 5 -11 0 -14 -3 -6 -6z"/>
<path d="M21250 10686 c0 -2 7 -9 15 -16 12 -10 15 -10 15 4 0 9 -7 16 -15 16
-8 0 -15 -2 -15 -4z"/>
<path d="M21905 9960 c3 -5 8 -10 11 -10 2 0 4 5 4 10 0 6 -5 10 -11 10 -5 0
-7 -4 -4 -10z"/>
<path d="M21970 9886 c0 -2 7 -9 15 -16 12 -10 15 -10 15 4 0 9 -7 16 -15 16
-8 0 -15 -2 -15 -4z"/>
<path d="M22040 9800 c0 -5 5 -10 10 -10 6 0 10 5 10 10 0 6 -4 10 -10 10 -5
0 -10 -4 -10 -10z"/>
<path d="M22071 9744 c0 -11 3 -14 6 -6 3 7 2 16 -1 19 -3 4 -6 -2 -5 -13z"/>
<path d="M22723 8839 c9 -5 17 -15 17 -20 0 -6 -5 -7 -12 -3 -7 4 -8 3 -4 -4
10 -16 14 -15 27 9 7 13 7 19 1 15 -6 -3 -13 -2 -17 4 -3 5 -12 10 -18 10 -7
0 -4 -5 6 -11z"/>
<path d="M23812 6993 c-6 -2 -10 -9 -7 -13 7 -11 35 -2 35 11 0 10 -8 10 -28
2z"/>
<path d="M23900 6841 c0 -5 5 -13 10 -16 6 -3 10 -2 10 4 0 5 -4 13 -10 16 -5
3 -10 2 -10 -4z"/>
<path d="M25146 2098 c3 -4 9 -8 15 -8 5 0 9 4 9 8 0 5 -7 9 -15 9 -8 0 -12
-4 -9 -9z"/>
</g>
</svg>
