<?xml version="1.0" standalone="no"?>
<!DOCTYPE svg PUBLIC "-//W3C//DTD SVG 20010904//EN"
 "http://www.w3.org/TR/2001/REC-SVG-20010904/DTD/svg10.dtd">
<svg version="1.0" xmlns="http://www.w3.org/2000/svg"
 width="3333.000000pt" height="3333.000000pt" viewBox="0 0 3333.000000 3333.000000"
 preserveAspectRatio="xMidYMid meet">

<g transform="translate(0.000000,3333.000000) scale(0.100000,-0.100000)"
fill="#000000" stroke="none">
<path d="M16379 33326 c-2 -2 -125 -7 -274 -10 -148 -4 -283 -8 -300 -10 -16
-2 -99 -7 -182 -11 -84 -4 -153 -10 -153 -14 0 -3 -35 -7 -77 -7 -125 -2 -136
-3 -393 -29 -277 -28 -676 -78 -801 -101 -46 -8 -91 -15 -99 -15 -8 0 -121
-19 -250 -40 -799 -134 -1589 -330 -2387 -590 -171 -56 -580 -201 -648 -229
-16 -7 -34 -14 -40 -15 -5 -2 -80 -30 -165 -63 -1282 -501 -2499 -1161 -3624
-1965 -349 -249 -876 -658 -876 -679 0 -6 -3 -9 -6 -5 -5 5 -165 -122 -194
-153 -3 -3 -42 -36 -87 -74 -45 -38 -80 -73 -76 -79 3 -6 2 -7 -4 -4 -20 13
-486 -415 -858 -788 -373 -372 -801 -838 -788 -858 3 -6 2 -7 -4 -4 -6 4 -41
-31 -79 -76 -38 -45 -71 -84 -74 -87 -31 -29 -158 -189 -153 -194 4 -3 1 -6
-5 -6 -17 0 -517 -638 -615 -786 -12 -17 -70 -99 -128 -181 -598 -836 -1169
-1842 -1611 -2838 -119 -267 -341 -809 -353 -860 -1 -5 -8 -23 -15 -40 -64
-152 -245 -687 -349 -1031 -109 -360 -267 -961 -257 -972 3 -2 1 -13 -5 -23
-12 -24 -75 -304 -128 -569 -37 -190 -118 -656 -120 -690 0 -8 -7 -53 -15 -99
-23 -125 -73 -524 -101 -801 -26 -257 -27 -268 -29 -392 0 -43 -4 -78 -7 -78
-4 0 -10 -69 -14 -152 -4 -84 -9 -166 -11 -183 -4 -31 -13 -341 -21 -715 -8
-324 32 -1413 53 -1479 3 -8 7 -53 9 -100 3 -72 42 -452 61 -596 57 -446 114
-812 179 -1140 19 -98 35 -181 35 -183 0 -2 6 0 13 4 9 5 9 4 1 -5 -12 -13 -6
-71 7 -71 5 0 6 -6 3 -13 -19 -50 371 -1542 407 -1555 5 -2 7 -7 4 -12 -6 -10
55 -204 65 -208 5 -2 6 -10 3 -19 -5 -12 -3 -14 7 -8 9 5 11 4 6 -4 -8 -12 19
-107 37 -128 5 -7 7 -13 4 -13 -6 0 47 -153 131 -380 87 -236 93 -250 103
-245 5 4 6 0 3 -8 -7 -19 87 -257 99 -250 6 3 7 1 3 -5 -6 -10 25 -95 79 -217
7 -16 52 -120 100 -230 306 -699 690 -1424 1110 -2095 200 -320 327 -510 338
-503 6 3 7 1 4 -4 -7 -12 191 -306 225 -335 11 -10 17 -18 13 -18 -8 0 21 -40
212 -298 87 -116 148 -190 155 -186 7 4 8 3 4 -5 -13 -20 472 -613 799 -976
1256 -1396 2694 -2541 4341 -3455 241 -134 818 -425 1079 -545 2971 -1364
6255 -1823 9510 -1329 2832 430 5528 1604 7790 3393 784 620 1591 1389 2236
2133 834 961 1524 1957 2114 3053 1469 2727 2144 5821 1950 8940 -177 2831
-1071 5564 -2603 7950 -970 1512 -2191 2866 -3609 4002 -147 117 -247 192
-254 187 -8 -4 -9 -3 -5 4 4 7 -70 68 -186 155 -258 191 -298 220 -298 212 0
-4 -8 2 -17 13 -30 34 -324 232 -336 225 -5 -3 -7 -2 -4 4 7 11 -183 138 -503
338 -671 420 -1396 804 -2095 1110 -110 48 -213 93 -230 100 -122 54 -207 85
-217 79 -6 -4 -8 -3 -5 3 7 12 -231 106 -250 99 -8 -3 -12 -2 -9 3 3 5 -2 12
-12 16 -253 100 -733 267 -749 261 -9 -4 -11 -1 -7 6 5 7 2 9 -9 5 -9 -3 -17
-2 -19 3 -4 10 -198 71 -208 65 -5 -3 -10 -1 -12 4 -13 36 -1505 426 -1555
407 -7 -3 -13 -2 -13 3 0 13 -58 19 -71 7 -9 -8 -10 -8 -5 2 4 6 6 12 4 12 -2
0 -85 16 -183 35 -328 65 -694 122 -1140 179 -144 19 -524 58 -596 61 -47 2
-92 6 -100 9 -75 25 -1597 74 -1620 52z m-5469 -6431 c149 -24 349 -77 471
-125 57 -23 109 -42 114 -43 6 -1 12 -5 15 -8 3 -4 25 -16 50 -29 347 -173
649 -494 808 -857 181 -412 216 -895 96 -1312 -83 -287 -225 -531 -433 -745
-323 -331 -735 -520 -1258 -576 -149 -16 -544 -8 -673 14 -403 70 -723 217
-1009 465 -71 62 -231 239 -268 297 -206 320 -299 592 -322 944 -26 394 59
772 243 1084 25 43 43 82 40 87 -3 5 -1 8 4 7 5 -2 41 38 79 87 75 96 233 253
323 322 72 54 209 140 285 178 33 17 63 34 66 38 3 5 8 8 10 6 2 -1 51 16 109
38 187 73 372 117 605 143 123 13 522 4 645 -15z m10497 -4927 c98 -7 203 -13
235 -13 31 0 54 -3 52 -6 -2 -4 26 -9 61 -13 202 -21 537 -99 796 -186 400
-134 748 -320 1079 -576 142 -110 457 -422 574 -569 604 -760 936 -1758 1006
-3025 6 -119 10 -1341 10 -3412 l0 -3228 -1795 0 -1795 0 0 2958 c0 2858 -2
3120 -30 3372 -137 1225 -748 1870 -1775 1870 -581 0 -1093 -235 -1456 -668
-205 -245 -381 -572 -439 -816 -58 -242 -54 -13 -57 -3508 l-3 -3208 -1801 0
-1800 0 7 648 c8 702 12 9333 5 9832 l-5 305 1797 3 1797 2 0 -757 0 -757 88
130 c48 72 102 149 120 171 18 23 32 45 32 51 0 6 4 12 8 14 5 2 44 46 87 98
43 52 98 116 124 143 25 26 42 47 39 47 -13 0 249 245 354 331 59 48 104 90
100 94 -4 4 -2 5 3 3 6 -1 75 41 155 94 80 53 196 123 258 155 61 33 110 62
107 64 -2 3 4 5 13 6 9 0 67 23 127 51 524 238 1227 348 1922 300z m-9107
-5633 l0 -5395 -1795 0 -1795 0 0 5395 0 5395 1795 0 1795 0 0 -5395z"/>
</g>
</svg>
